<?xml version="1.0" encoding="UTF-8"?><svg id="Layer_1" xmlns="http://www.w3.org/2000/svg" viewBox="0 0 800 249.79"><defs><style>.cls-1{fill:#fff;}.cls-2{fill:#73000a;}</style></defs><g><rect class="cls-2" x="27.07" y="49.97" width="148.06" height="148.06"/><path class="cls-1" d="M134.09,134.54v-7.55s-8.29-10.12-19.88-10.12c-8.87,0-12.96,5.21-12.96,5.21,0,0-4.09-5.21-12.96-5.21-11.59,0-19.88,10.12-19.88,10.12v7.55s9.46-15.37,23.25-15.37c5.21,0,9.59,4.67,9.59,4.67,0,0,4.38-4.67,9.59-4.67,13.79,0,23.25,15.37,23.25,15.37Zm-27.35,11.43h.02l2.36-5.72h-2.36l2.36-5.72h-2.36l1.9-4.6c4.71,1.74,7.98,8.39,7.98,8.39v-5.52c-3.89-5.34-10.2-4-10.2-4l-2.36,5.72h2.36l-2.36,5.72h2.36l-2.36,5.72h-.06v20.31l3.93,6.28h2.86l-3.86-6.57h5.97v-1.41h-6.19v-18.61Zm-.13-21.61c13.97,0,18.24,13.32,18.24,13.32v-7.11c-4.58-5.89-8.95-7.06-12.84-7.11-3.08-.04-5.4,.91-5.4,.91Zm22.78,18.61l1.17-2.72h-15.27l1.17,2.72h12.93Zm21.53,12.98v2.58h-5.29v-6.19h-2.72v6.19h-5.29v-9.86h-2.72v9.86h-5.53v-13.69h-12.95v27.82h2.72v-25.1h7.52v25.1h2.72v-12.71h5.53v12.71h2.72v-12.71h5.29v12.71h2.72v-12.71h5.29v12.71h2.72v-16.7h-2.72Zm-49.66-55.17c0-1.64,6.88-15.69,18.91-19.09v-6.43c-9.03,2.3-18.91,17.51-18.91,23.53,0-6.02-9.89-21.23-18.91-23.53v6.43c12.03,3.4,18.91,17.45,18.91,19.09Zm0,6.93s8.1-16.54,29.38-16.54v-6.54c-20.12,0-29.38,20.53-29.38,20.53,0,0-9.26-20.53-29.38-20.53v6.54c21.28,0,29.38,16.54,29.38,16.54Zm-5.2,32.53h2.36l-2.36-5.72h2.36l-2.36-5.72s-6.31-1.33-10.2,4v5.52s3.28-6.65,7.98-8.39l1.9,4.6h-2.36l2.36,5.72h-2.36l2.36,5.72h.02v18.61h-6.19v1.41h5.97l-3.86,6.57h2.86l3.93-6.28v-20.31h-.06l-2.36-5.72Zm-17.7-37.47c13.37,0,22.9,11.13,22.9,11.13,0,0,9.53-11.13,22.9-11.13,7.6,0,12.73,3.3,12.73,3.3l.02-7.34s-5.49-1.71-10.04-1.71c-17.32,0-25.61,14.86-25.61,14.86,0,0-8.3-14.86-25.61-14.86-4.55,0-10.04,1.71-10.04,1.71l.02,7.34s5.13-3.3,12.73-3.3Zm22.9-11.14s.15-10.01,8.55-14.1c.05-3.27,.05-5.7,.05-5.7-8.31,4.2-8.6,15.21-8.6,15.21,0,0-.29-11.01-8.6-15.21,0,0,0,2.43,.05,5.7,8.4,4.09,8.55,14.1,8.55,14.1Zm-28.13,51.34h12.93l1.17-2.72h-15.27l1.17,2.72Zm17.37-19.52c-3.89,.05-8.26,1.22-12.84,7.11v7.11s4.27-13.32,18.24-13.32c0,0-2.32-.95-5.4-.91Zm-4.52-11.57c9.61-.03,15.28,7,15.28,7,0,0,5.66-7.03,15.28-7,13.9,.12,24.1,12.67,24.1,12.67v-9.11s-8.28-7-21.3-7c-11.78,0-18.07,8.65-18.07,8.65,0,0-6.3-8.65-18.07-8.65-13.02,0-21.3,7-21.3,7v9.11s10.2-12.56,24.1-12.67Zm-12.86,46.65h-5.53v-9.86h-2.72v9.86h-5.29v-6.19h-2.72v6.19h-5.29v-2.58h-2.72v16.7h2.72v-12.71h5.29v12.71h2.72v-12.71h5.29v12.71h2.72v-12.71h5.53v12.71h2.72v-25.1h7.52v25.1h2.72v-27.82h-12.95v13.69Z"/><g><path class="cls-2" d="M217.23,164.07c2.78,3.23,7.35,5.82,12.37,5.82,6.99,0,11.29-4.3,11.29-10.57,0-5.29-3.41-8.69-8.78-11.11l-10.84-5.02c-6.9-3.14-12.01-7.44-12.01-15.32,0-9.14,7.88-15.32,22.22-18.37,6,0,12.63,1.97,17.29,5.2v12.9h-5.29l-2.6-8.15c-2.33-2.51-5.38-4.57-10.57-4.57-6.81,0-10.75,3.67-10.75,8.96,0,4.48,3.14,7.35,7.8,9.5l10.93,4.93c8.33,3.94,13.35,8.42,13.26,16.85,0,9.23-6.81,16.58-23.48,20.34-7.8,0-13.8-2.42-18.82-6.09l-1.97-13.17h6.9l3.05,7.88Z"/><path class="cls-2" d="M299.1,150.37c0,13.98-9.23,22.39-22.85,24.81-11.74,0-20.07-10.29-20.07-22.75,0-14.16,9.23-22.39,22.85-24.9,11.74,0,20.07,10.29,20.07,22.84Zm-20.34,20.06c6,0,9.32-7.43,9.32-17.28,0-12.45-5.02-20.87-11.65-20.87-6.09,0-9.32,7.43-9.32,17.28,0,11.65,4.84,20.87,11.65,20.87Z"/><path class="cls-2" d="M343.22,162.01c0,3.67,.45,5.11,1.16,6.54h4.12l.36,3.58-12.9,2.42-2.6-7.53-12.81,8.15c-11.38,0-14.07-3.76-14.07-14.25v-26.05l-5.73,.45-.45-3.94,11.2-2.42,5.38-.36v32.15c0,4.3,1.79,6.27,5.91,6.27,2.42,0,5.47-1.79,8.42-3.76l1.7-1.16v-27.22l-5.02,.45-.45-3.94,10.39-2.42,5.38-.36v33.4Z"/><path class="cls-2" d="M395.12,169.36l4.48,.99-.45,3.58-8.96-.27-10.66,.27-.45-3.58,5.73-.99v-51.95l-5.82,.18-.45-3.58,11.65-2.69,4.93-.36v25.09l13.35-8.51c11.02,0,13.53,3.85,13.53,15.05v26.77l6.18,.99-.45,3.58-10.66-.27-9.05,.27-.45-3.58,4.03-.99v-27.67c0-4.21-1.97-6.09-5.29-6.09-2.6,0-5.73,1.88-8.78,3.76l-2.42,1.52v28.47Z"/><g><path class="cls-2" d="M504.22,154.39l-2.06,14.34c-5.11,2.33-12.64,5.47-21.25,6.72-13.62,0-30.22-11.11-30.22-31.9s14.72-31.48,32.46-34.05c9.05,0,15.69,3.76,19.9,6.54v13.53h-5.56l-2.87-8.51c-2.33-2.87-5.74-6.36-13.09-6.36-12.28,0-18.48,9.41-18.48,26.43,0,14.87,5.84,28.94,20.18,28.94,5.56,0,8.16-2.96,10.94-5.47l4.66-10.22h5.38Z"/><path class="cls-2" d="M526.67,127.53c11.92,0,15.32,3.05,15.32,14.07v22.02c0,3.76,.54,5.29,1.43,6.72h4.39l.45,3.58-13.26,1.25-2.87-7.71-10.48,7.71c-7.97,0-13.62-4.48-13.62-11.74,0-3.49,1.34-6.09,3.49-8.6l20.07-6.54v-7.33c0-5.38-.9-7.88-4.93-7.88-2.24,0-4.75,.72-6.54,1.52l-1.43,7.8h-9.23v-7.53l17.2-7.35Zm4.93,24.53l-11.38,4.66c-1.34,1.43-1.88,3.49-1.88,5.47,0,4.48,2.51,6.09,4.84,6.09s4.12-1.25,5.29-2.06l3.14-2.15v-12.01Z"/><path class="cls-2" d="M566.12,141.42l9.86-13.44h8.95l-2.49,10.48h-6.46c-2.15,.63-5.38,3.32-7.8,6.09l-1.52,1.79v22.83l9.5,.9-.45,3.85-13.98-.27-10.57,.27-.45-3.58,5.82-.99v-34.48l-5.82,.45-.45-3.67,11.2-2.69,4.12-.36,.54,12.81Z"/><path class="cls-2" d="M626.66,150.37c0,13.98-9.23,22.39-22.85,24.81-11.74,0-20.07-10.29-20.07-22.75,0-14.16,9.23-22.39,22.85-24.9,11.74,0,20.07,10.29,20.07,22.84Zm-20.34,20.06c6,0,9.32-7.43,9.32-17.28,0-12.45-5.02-20.87-11.65-20.87-6.09,0-9.32,7.43-9.32,17.28,0,11.65,4.84,20.87,11.65,20.87Z"/><path class="cls-2" d="M638.24,173.66l-10.66,.27-.45-3.58,5.73-.99v-51.95l-5.82,.18-.45-3.67,11.65-2.69,4.93-.36v58.49l6.18,.99-.45,3.58-10.66-.27Z"/><path class="cls-2" d="M664.5,173.66l-10.66,.27-.45-3.58,5.82-.99v-34.57l-5.82,.36-.45-3.58,11.65-2.6,4.93-.36v40.75l6.09,.99-.45,3.58-10.66-.27Zm-4.84-61.83l7.35-.54,2.69,.54,.54,5.47-1.08,4.66-7.26,.54-2.69-.54-.54-5.47,.99-4.66Z"/><path class="cls-2" d="M690.99,173.66l-10.66,.27-.45-3.58,5.82-.99v-34.48l-5.91,.45-.45-3.67,11.65-2.69,4.57-.27,.27,7.44,13.44-8.6c11.02,0,13.62,3.49,13.62,14.25v27.58l6.18,.99-.45,3.58-10.66-.27-9.23,.27-.45-3.58,4.12-.99v-27.67c0-4.21-1.88-6.09-5.38-6.09-2.96,0-5.82,1.88-8.69,3.76l-2.33,1.61v28.38l4.39,.99-.45,3.58-8.96-.27Z"/><path class="cls-2" d="M749.33,127.53c11.92,0,15.32,3.05,15.32,14.07v22.02c0,3.76,.54,5.29,1.43,6.72h4.39l.45,3.58-13.26,1.25-2.87-7.71-10.48,7.71c-7.97,0-13.62-4.48-13.62-11.74,0-3.49,1.34-6.09,3.49-8.6l20.07-6.54v-7.33c0-5.38-.9-7.88-4.93-7.88-2.24,0-4.75,.72-6.54,1.52l-1.43,7.8h-9.23v-7.53l17.2-7.35Zm4.93,24.53l-11.38,4.66c-1.34,1.43-1.88,3.49-1.88,5.47,0,4.48,2.51,6.09,4.84,6.09s4.12-1.25,5.29-2.06l3.14-2.15v-12.01Z"/></g><path class="cls-2" d="M376.19,166.37c-1.89,.88-3.57,1.47-5.66,1.47-3.41,0-4.66-2.6-4.66-5.47v-29.37h10.32v-4.39h-10.41v-11.02h-3.14l-6.9,6.18v4.3h-4.04l-3.32,3.41v1.52h7.18v30.27c0,8.69,3.58,11.92,12.63,11.92l7.41-4.05,.59-4.76Z"/></g></g><g><path class="cls-2" d="M223.88,74.56l.18-1.41,4.51,.11,4.08-.11,.18,1.41-2.92,.46v14.08c0,4.61-1.87,7.71-8.87,9.36-7.39,0-10-3.77-10-9.36v-14.08s-2.99-.46-2.99-.46l.18-1.41,4.82,.11,5.17-.11,.18,1.41-2.78,.46v14.4c0,4.29,1.83,6.79,5.74,6.79,3.63,0,5.6-2.5,5.6-6.9v-14.29s-3.06-.46-3.06-.46Z"/><path class="cls-2" d="M243.86,95.99l2.82,.46-.14,1.41-3.8-.11-4.15,.11-.18-1.41,2.99-.46v-20.8s-2.89-.63-2.89-.63l.18-1.41,3.1,.11,3.13-.11,11.86,16.12,.84,2.5v-16.75s-2.82-.46-2.82-.46l.14-1.41,3.8,.11,4.15-.11,.18,1.41-2.99,.46v22.88s-2.39,0-2.39,0l-13.13-18.27-.7-2.78v19.15Z"/><path class="cls-2" d="M273.85,97.75l-5.03,.11-.18-1.44,2.99-.46v-20.94s-2.99-.46-2.99-.46l.18-1.41,5.03,.11,5.03-.11,.18,1.41-2.99,.46v20.94s2.99,.46,2.99,.46l-.18,1.44-5.03-.11Z"/><path class="cls-2" d="M295.95,98.39l-8.91-23.41-2.57-.42,.18-1.41,5.46,.11,4.47-.11,.18,1.41-2.82,.46,6.02,16.79,.11,2.11,6.69-18.9-2.92-.46,.18-1.41,3.98,.11,3.66-.11,.18,1.41-2.5,.42-8.59,22.56-2.78,.85Z"/><path class="cls-2" d="M333.2,73.15l.35,6.51h-1.44s-2.04-4.58-2.04-4.58l-8.84-.11v9.08s4.54-.14,4.54-.14l1.41-3.73h1.48s-.35,4.58-.35,4.58l.35,4.86h-1.48s-1.41-3.73-1.41-3.73l-4.54-.14v10.28s9.22-.11,9.22-.11l2.36-4.75h1.58s-1.2,6.69-1.2,6.69l-14.36-.11-4.86,.11-.18-1.41,2.99-.46v-20.98s-2.99-.46-2.99-.46l.18-1.41,4.86,.11,14.36-.11Z"/><path class="cls-2" d="M347.1,86.56v9.43s2.85,.46,2.85,.46l-.18,1.41-4.89-.11-5.03,.11-.18-1.41,2.99-.46v-20.98s-2.99-.46-2.99-.46l.18-1.41,5.03,.11,7.04-.11c4.43-.04,7.92,2.01,7.92,6.12s-3.63,5.88-7.46,6.76l3.03,1.58,5.7,8.34,1.8,.53-.14,1.37-3.31-.11-2.64,.11-7.18-10.91-.42-.39h-2.11Zm0-1.8h2.39c3.24,0,5.49-2.11,5.49-5.24,0-3.17-2.08-4.75-4.75-4.79l-3.13,.25v9.79Z"/><path class="cls-2" d="M370.48,93.99c1.09,1.27,2.89,2.29,4.86,2.29,2.75,0,4.43-1.69,4.43-4.15,0-2.08-1.34-3.41-3.45-4.37l-4.26-1.97c-2.71-1.23-4.72-2.92-4.72-6.02,0-3.59,3.1-6.02,8.73-7.22,2.36,0,4.96,.77,6.79,2.04v5.07s-2.08,0-2.08,0l-1.02-3.2c-.91-.99-2.11-1.8-4.15-1.8-2.68,0-4.22,1.44-4.22,3.52,0,1.76,1.23,2.89,3.06,3.73l4.29,1.94c3.27,1.55,5.24,3.31,5.21,6.62,0,3.63-2.68,6.51-9.22,7.99-3.06,0-5.42-.95-7.39-2.39l-.77-5.17h2.71s1.2,3.1,1.2,3.1Z"/><path class="cls-2" d="M394.66,97.75l-5.03,.11-.18-1.44,2.99-.46v-20.94s-2.99-.46-2.99-.46l.18-1.41,5.03,.11,5.03-.11,.18,1.41-2.99,.46v20.94s2.99,.46,2.99,.46l-.18,1.44-5.03-.11Z"/><path class="cls-2" d="M421.72,97.86l-5.95-.11-6.09,.11-.18-1.41,4.05-.46v-20.98s-4.86,.07-4.86,.07l-1.69,4.68h-1.55v-6.62s10.38,.11,10.38,.11l10.24-.11v6.62s-1.58,0-1.58,0l-1.65-4.68-4.86-.07v20.98s3.91,.46,3.91,.46l-.18,1.41Z"/><path class="cls-2" d="M446.03,88.21l.03,7.78,3.94,.46-.18,1.41-5.98-.11-6.12,.11-.18-1.41,4.08-.46v-7.88s-7.78-13.16-7.78-13.16l-2.57-.42,.18-1.37,5,.11,4.89-.11,.18,1.37-2.82,.46,5.88,9.93,.18,1.51,6.12-11.44-2.89-.46,.18-1.37,4.05,.11,3.77-.11,.18,1.37-2.57,.39-7.57,13.31Z"/><path class="cls-2" d="M498.54,84.94c0,7.78-3.91,11.93-13.02,13.52-7.36,0-12.25-5.28-12.25-12.39,0-7.78,3.91-11.93,13.02-13.52,7.36,0,12.25,5.28,12.25,12.39Zm-12.14,11.4c5.1,0,7.29-4.47,7.29-10.24,0-5.17-2.25-11.44-8.24-11.44-5.1,0-7.32,4.44-7.32,10.21,0,5.31,2.32,11.47,8.27,11.47Z"/><path class="cls-2" d="M503.81,97.86l-.18-1.41,2.99-.46v-20.98s-2.99-.46-2.99-.46l.18-1.41,4.86,.11,14.36-.11,.35,6.62h-1.44s-2.04-4.68-2.04-4.68l-8.84-.11v9.57s4.54-.14,4.54-.14l1.41-3.7h1.48s-.35,4.58-.35,4.58l.35,4.86h-1.48s-1.41-3.73-1.41-3.73l-4.54-.14v9.72s4.22,.46,4.22,.46l-.18,1.41-6.44-.11-4.86,.11Z"/></g></svg>